# xmcd
#
# Track frame offsets: 
#        150
#        13196
#        21337
#        34622
#        45503
#        56486
#        67476
#        76540
#        87167
#        96494
#        108533
#        117309
#        126570
#        134857
#
# Disc length: 1953 seconds
#
# Revision: 3
# Processed by: cddbd v1.5.2PL0 Copyright (c) Steve Scherf et al.
# Submitted via: ExactAudioCopy v0.99pb4
#
DISCID=ca079f0e
DTITLE=Beatles - Please Please Me (2009 Remaster)
DYEAR=1963
DGENRE=Rock
TTITLE0=I Saw Her Standing There
TTITLE1=Misery
TTITLE2=Anna (Go To Him)
TTITLE3=Chains
TTITLE4=Boys
TTITLE5=Ask Me Why
TTITLE6=Please Please Me
TTITLE7=Love Me Do
TTITLE8=P.S. I Love You
TTITLE9=Baby It's You
TTITLE10=Do You Want To Know A Secret
TTITLE11=A Taste Of Honey
TTITLE12=There's A Place
TTITLE13=Twist And Shout
EXTD=YEAR: 2009
EXTT0=
EXTT1=
EXTT2=
EXTT3=
EXTT4=
EXTT5=
EXTT6=
EXTT7=
EXTT8=
EXTT9=
EXTT10=
EXTT11=
EXTT12=
EXTT13=
PLAYORDER=
